<?xml version="1.0" standalone="no"?>
<!DOCTYPE svg PUBLIC "-//W3C//DTD SVG 20010904//EN"
 "http://www.w3.org/TR/2001/REC-SVG-20010904/DTD/svg10.dtd">
<svg version="1.0" xmlns="http://www.w3.org/2000/svg"
 width="757.000000pt" width="50.000000pt" height="50.000000pt" viewBox="0 0 757.000000 757.000000"
 preserveAspectRatio="xMidYMid meet">

<g transform="translate(0.000000,757.000000) scale(0.100000,-0.100000)"
fill="#000000" stroke="none">
<path d="M3550 6261 c-345 -75 -618 -329 -727 -678 l-28 -88 0 -720 0 -720 23
-79 c107 -369 404 -638 775 -702 68 -12 142 -15 299 -12 l208 3 0 -170 c0
-151 2 -174 20 -202 10 -17 29 -37 42 -44 34 -18 438 -119 477 -119 123 0 173
177 68 244 -12 8 -92 32 -177 54 l-155 40 -3 143 -2 144 60 33 c225 123 401
361 467 630 24 99 32 1287 9 1438 -56 377 -319 677 -693 791 -83 25 -101 26
-333 29 -209 3 -257 1 -330 -15z m559 -267 c36 -9 104 -34 150 -56 69 -33 101
-57 177 -132 79 -78 98 -104 137 -186 78 -162 78 -164 75 -885 -3 -630 -3
-630 -27 -700 -76 -227 -237 -395 -456 -472 -79 -28 -83 -28 -310 -28 -214 0
-235 2 -299 23 -175 59 -308 162 -401 312 -41 65 -82 185 -94 274 -14 99 -14
1154 -1 1251 39 274 219 494 475 581 44 14 114 30 155 35 108 11 341 2 419
-17z"/>
<path d="M3225 3041 c-287 -74 -433 -116 -655 -191 -538 -180 -822 -344 -905
-522 -24 -52 -25 -59 -25 -291 0 -272 3 -286 73 -318 41 -18 89 -19 1482 -19
1351 0 1442 1 1475 18 42 21 80 75 80 114 0 43 -25 94 -56 115 -27 17 -93 18
-1409 23 l-1380 5 -3 116 c-3 115 -2 117 25 150 35 42 154 119 262 171 259
124 746 282 1206 393 128 31 143 37 173 69 59 65 39 170 -41 207 -23 10 -49
19 -57 18 -8 0 -118 -26 -245 -58z"/>
<path d="M5566 2990 c-15 -5 -37 -17 -48 -27 -45 -40 -48 -60 -48 -297 l0
-225 -241 -3 -241 -3 -34 -37 c-28 -31 -34 -45 -34 -83 0 -55 19 -95 57 -121
25 -17 52 -19 261 -22 l232 -3 0 -220 c0 -246 6 -275 62 -309 42 -26 104 -26
146 0 56 34 62 63 62 309 l0 220 233 3 c208 3 235 5 260 22 38 26 57 66 57
121 0 38 -6 52 -34 83 l-34 37 -241 3 -241 3 0 227 c0 207 -2 230 -20 259 -33
55 -95 80 -154 63z"/>
</g>
</svg>
