<?xml version="1.0" standalone="no"?>
<!DOCTYPE svg PUBLIC "-//W3C//DTD SVG 20010904//EN"
 "http://www.w3.org/TR/2001/REC-SVG-20010904/DTD/svg10.dtd">
<svg version="1.0" xmlns="http://www.w3.org/2000/svg"
 width="512.000000pt" height="512.000000pt" viewBox="0 0 512.000000 512.000000"
 preserveAspectRatio="xMidYMid meet">

<g transform="translate(0.000000,512.000000) scale(0.100000,-0.100000)"
fill="current" stroke="none">
<path d="M2410 5113 c-120 -8 -266 -27 -370 -49 -117 -25 -319 -81 -332 -93
-4 -4 402 -416 902 -916 l910 -910 0 896 0 895 -122 42 c-327 111 -662 157
-988 135z"/>
<path d="M1240 4753 c-411 -249 -757 -626 -975 -1063 -251 -501 -327 -1110
-208 -1662 9 -43 19 -78 22 -78 3 0 467 461 1031 1025 l1025 1025 -400 400
c-220 220 -404 400 -410 399 -5 0 -44 -21 -85 -46z"/>
<path d="M3840 3185 l0 -1585 548 0 548 0 42 123 c144 422 177 838 101 1279
-112 652 -479 1238 -1024 1634 -76 56 -198 134 -209 134 -3 0 -6 -713 -6
-1585z"/>
<path d="M742 2077 l-534 -534 52 -104 c215 -429 534 -787 928 -1038 46 -30
85 -51 87 -49 3 3 4 512 3 1131 l-3 1127 -533 -533z"/>
<path d="M1600 732 l0 -548 123 -42 c498 -170 1012 -187 1519 -48 590 162
1115 544 1453 1055 36 55 68 107 71 115 6 14 -149 16 -1580 16 l-1586 0 0
-548z"/>
</g>
</svg>
